<?xml version="1.0" encoding="UTF-8"?>
<svg version="1.1" xmlns="http://www.w3.org/2000/svg" width="500" height="500">
<path d="M0 0 C1.24160889 -0.0049926 1.24160889 -0.0049926 2.50830078 -0.01008606 C4.25992276 -0.01513897 6.01155433 -0.01749489 7.76318359 -0.01733398 C10.40088512 -0.01950117 13.03815469 -0.03762047 15.67578125 -0.05664062 C40.94661755 -0.14292946 62.15212192 5.67073323 81.25 22.79296875 C82.4375 24.16796875 82.4375 24.16796875 82.4375 26.16796875 C83.0975 26.16796875 83.7575 26.16796875 84.4375 26.16796875 C84.4375 26.82796875 84.4375 27.48796875 84.4375 28.16796875 C85.0975 28.16796875 85.7575 28.16796875 86.4375 28.16796875 C103.28205796 47.15892468 108.682661 71.52761599 107.4375 96.16796875 C105.38903042 118.44878641 93.35671513 139.10723019 76.62890625 153.6015625 C57.82414278 168.4106259 38.38076517 171.86460296 15.0625 172.85546875 C13.96945557 172.90396973 12.87641113 172.9524707 11.75024414 173.00244141 C5.20679706 173.23626032 -1.06951775 172.97606156 -7.5625 172.16796875 C-14.06561223 171.48073858 -17.42467447 172.20244984 -22.71484375 176.12109375 C-26.53911713 178.86995418 -30.53856417 181.28682133 -34.5625 183.73046875 C-35.31007568 184.1891333 -36.05765137 184.64779785 -36.82788086 185.12036133 C-41.36324707 187.88875322 -45.95088925 190.52837835 -50.6171875 193.07006836 C-52.31118385 194.0261303 -53.9440225 195.08898375 -55.5625 196.16796875 C-56.5525 196.16796875 -57.5425 196.16796875 -58.5625 196.16796875 C-58.81346854 187.28879476 -58.02371398 178.61162322 -57.0625 169.79296875 C-56.77787573 167.13965924 -56.4976906 164.48595182 -56.21875 161.83203125 C-56.03022461 160.09107178 -56.03022461 160.09107178 -55.83789062 158.31494141 C-55.07830946 153.06438026 -55.07830946 153.06438026 -56.8828125 148.4296875 C-57.47835937 147.91019531 -58.07390625 147.39070312 -58.6875 146.85546875 C-74.07689669 132.42212677 -82.79478327 111.05044327 -83.78125 90.171875 C-84.3449148 71.5068838 -79.56315794 54.90716579 -69.5625 39.16796875 C-68.88891027 37.94258227 -68.22152563 36.71374908 -67.5625 35.48046875 C-63.72002592 29.11637105 -58.67048258 23.46559567 -52.5625 19.16796875 C-51.9025 19.16796875 -51.2425 19.16796875 -50.5625 19.16796875 C-50.5625 18.50796875 -50.5625 17.84796875 -50.5625 17.16796875 C-39.38433287 9.00069502 -27.04836091 4.06478648 -13.5625 1.16796875 C-12.85859131 0.99450928 -12.15468262 0.8210498 -11.42944336 0.64233398 C-7.61877065 0.01181903 -3.85109996 0.00544902 0 0 Z " fill="#926DC3" transform="translate(238.5625,189.83203125)"/>
<path d="M0 0 C1.53514298 0.0150886 3.07030046 0.02876955 4.60546875 0.04101562 C8.3206202 0.07365722 12.03521333 0.12520353 15.75 0.1875 C15.75 0.5175 15.75 0.8475 15.75 1.1875 C15.1415625 1.26226562 14.533125 1.33703125 13.90625 1.4140625 C-8.87355111 4.83103267 -28.74912386 17.37580387 -42.46630859 35.82324219 C-55.38218787 54.09755818 -59.92330767 77.52651438 -56.42993164 99.50292969 C-53.20776624 117.01609447 -45.58337427 132.42641415 -33.15625 145.078125 C-31.25 147.1875 -31.25 147.1875 -31.25 149.1875 C-30.68925781 149.44144531 -30.12851563 149.69539062 -29.55078125 149.95703125 C-26.93416487 151.35641013 -24.77514849 153.04725333 -22.4375 154.875 C-12.01740073 162.50623116 -0.93754637 166.94096987 11.75 169.1875 C11.75 169.5175 11.75 169.8475 11.75 170.1875 C10.82775635 170.18637207 9.9055127 170.18524414 8.95532227 170.18408203 C5.49343172 170.19407933 2.0338833 170.23087793 -1.42749023 170.28515625 C-2.91795985 170.30318937 -4.40859486 170.310908 -5.89916992 170.30761719 C-15.31773561 170.29498753 -21.78486744 170.96701548 -29.25 177.1875 C-30.73395741 178.15146046 -32.23446383 179.09039682 -33.75 180.00390625 C-34.4925 180.45830078 -35.235 180.91269531 -36 181.38085938 C-36.7425 181.83267578 -37.485 182.28449219 -38.25 182.75 C-39.36375 183.43352539 -39.36375 183.43352539 -40.5 184.13085938 C-45.04077188 186.90183388 -49.63314418 189.54505266 -54.3046875 192.08959961 C-55.99868385 193.04566155 -57.6315225 194.108515 -59.25 195.1875 C-60.24 195.1875 -61.23 195.1875 -62.25 195.1875 C-62.50096854 186.30832601 -61.71121398 177.63115447 -60.75 168.8125 C-60.46537573 166.15919049 -60.1851906 163.50548307 -59.90625 160.8515625 C-59.71772461 159.11060303 -59.71772461 159.11060303 -59.52539062 157.33447266 C-58.76580946 152.08391151 -58.76580946 152.08391151 -60.5703125 147.44921875 C-61.16585937 146.92972656 -61.76140625 146.41023437 -62.375 145.875 C-77.76439669 131.44165802 -86.48228327 110.06997452 -87.46875 89.19140625 C-88.0324148 70.52641505 -83.25065794 53.92669704 -73.25 38.1875 C-72.57641027 36.96211352 -71.90902563 35.73328033 -71.25 34.5 C-67.40752592 28.1359023 -62.35798258 22.48512692 -56.25 18.1875 C-55.59 18.1875 -54.93 18.1875 -54.25 18.1875 C-54.25 17.5275 -54.25 16.8675 -54.25 16.1875 C-37.66984278 4.07328836 -20.21053575 -0.34936673 0 0 Z " fill="#3D195D" transform="translate(242.25,190.8125)"/>
<path d="M0 0 C4.03401489 2.09171143 6.35833216 3.76418723 8 8 C8.24590892 12.58210297 7.55448599 16.14144105 5.0625 20 C1.27904517 23.66880468 -2.19680897 23.44581858 -7.29296875 23.42578125 C-10.30764057 22.95161209 -11.21409096 22.44176582 -13.125 20.125 C-15.82297744 15.62837093 -16.61226245 13.33542993 -16 8 C-11.84960592 1.52538524 -7.84825087 -1.06491136 0 0 Z " fill="#3C145E" transform="translate(257,261)"/>
<path d="M0 0 C3.18500291 1.62145603 5.22111096 2.97328264 7.375 5.8125 C8.59875016 10.09562557 8.59895652 13.68229565 6.75 17.75 C4.39942086 20.77217318 2.43149713 22.72068349 -1.40234375 23.46875 C-8.28187892 23.55355167 -8.28187892 23.55355167 -12 20.6875 C-15.49563137 15.99024534 -16.47731221 14.00698945 -15.65625 8.296875 C-14.73725957 5.08040848 -13.39450649 3.2094419 -10.875 1.03515625 C-7.30808015 -0.93408075 -3.91485027 -0.82639058 0 0 Z " fill="#3B145E" transform="translate(220,261)"/>
<path d="M0 0 C3.33291305 1.70461965 6.30251153 3.60502305 8 7 C8.53118173 10.79415519 8.85089348 14.46331178 6.953125 17.890625 C4.52414924 20.8339721 2.62709223 22.79841335 -1.20703125 23.2734375 C-8.30864514 23.55026203 -8.30864514 23.55026203 -12.0625 20.5625 C-12.701875 19.716875 -13.34125 18.87125 -14 18 C-14.33 17.67 -14.66 17.34 -15 17 C-15.64190456 11.5346412 -16.03204304 7.35795137 -12.625 2.875 C-8.47868323 -0.08665483 -5.05691844 -0.83675629 0 0 Z " fill="#3B145F" transform="translate(294,261)"/>
<path d="M0 0 C5.31614869 -0.05001081 10.63215582 -0.08600398 15.94848633 -0.10986328 C17.75124502 -0.11982594 19.55398796 -0.13340096 21.35668945 -0.15087891 C40.18603805 -0.32866226 59.11183823 0.65131302 75 12 C71.35129656 13.06294873 70.35294027 12.76960736 67 11 C65.0800105 10.54440927 63.15988439 10.08936095 61.23828125 9.640625 C57.31643862 8.51814299 53.67459647 6.75223813 50 5 C50 4.34 50 3.68 50 3 C48.60974609 3.01740234 48.60974609 3.01740234 47.19140625 3.03515625 C45.99386719 3.04417969 44.79632813 3.05320313 43.5625 3.0625 C42.36753906 3.07410156 41.17257812 3.08570313 39.94140625 3.09765625 C37 3 37 3 36 2 C33.33573315 1.83996512 30.69439572 1.74057111 28.02734375 1.68359375 C27.22970108 1.66281265 26.43205841 1.64203156 25.61024475 1.62062073 C23.05275389 1.55503842 20.4951572 1.49620033 17.9375 1.4375 C16.20767118 1.39432301 14.47785321 1.35070899 12.74804688 1.30664062 C8.4988074 1.19934828 4.2494611 1.09810574 0 1 C0 0.67 0 0.34 0 0 Z " fill="#A999C3" transform="translate(230,190)"/>
<path d="M0 0 C0.97839844 0.28101563 1.95679688 0.56203125 2.96484375 0.8515625 C3.92519531 1.12742187 4.88554687 1.40328125 5.875 1.6875 C8.53664564 2.37678733 11.20464107 3.0325063 13.875 3.6875 C13.875 4.0175 13.875 4.3475 13.875 4.6875 C5.625 4.6875 -2.625 4.6875 -11.125 4.6875 C-11.455 4.0275 -11.785 3.3675 -12.125 2.6875 C-10.475 2.3575 -8.825 2.0275 -7.125 1.6875 C-7.125 1.0275 -7.125 0.3675 -7.125 -0.3125 C-4.32135728 -1.71432136 -2.97410664 -0.87400627 0 0 Z " fill="#3A1756" transform="translate(240.125,356.3125)"/>
<path d="M0 0 C0.33 0 0.66 0 1 0 C2.1526479 5.49794755 2.14849648 10.84925315 2.125 16.4375 C2.12886719 17.35337891 2.13273437 18.26925781 2.13671875 19.21289062 C2.12948657 24.25010572 1.86041032 29.03556902 1 34 C0.67 34 0.34 34 0 34 C-0.79274569 30.50428279 -1.12831956 27.27324174 -1.1328125 23.69140625 C-1.13410156 22.69689453 -1.13539063 21.70238281 -1.13671875 20.67773438 C-1.13285156 19.64970703 -1.12898438 18.62167969 -1.125 17.5625 C-1.12886719 16.53833984 -1.13273437 15.51417969 -1.13671875 14.45898438 C-1.13033939 9.53092798 -1.04637919 4.8415799 0 0 Z " fill="#AF9AC8" transform="translate(344,259)"/>
<path d="M0 0 C-3.53361325 2.99801938 -7.04589616 5.23912566 -11.1875 7.3125 C-12.23292969 7.84488281 -13.27835937 8.37726563 -14.35546875 8.92578125 C-15.22816406 9.28027344 -16.10085938 9.63476562 -17 10 C-19 9 -19 9 -20 7 C-18.5437455 6.32880451 -17.08492133 5.66318193 -15.625 5 C-14.81289063 4.62875 -14.00078125 4.2575 -13.1640625 3.875 C-11 3 -11 3 -9 3 C-8.67 2.34 -8.34 1.68 -8 1 C-5.07175348 0.02391783 -3.04386724 -0.08226668 0 0 Z " fill="#A28BBF" transform="translate(309,347)"/>
<path d="M0 0 C-0.33 0.66 -0.66 1.32 -1 2 C-3.64860427 2.59355614 -6.29197322 2.74209269 -9 3 C-9 3.99 -9 4.98 -9 6 C-12.08888522 8.05925681 -12.70935927 8.2390374 -16.1875 8.125 C-18.0746875 8.063125 -18.0746875 8.063125 -20 8 C-17.53247709 5.14901069 -14.93068057 3.87822831 -11.5 2.375 C-10.5409375 1.94960937 -9.581875 1.52421875 -8.59375 1.0859375 C-3.34045394 -1.11348465 -3.34045394 -1.11348465 0 0 Z " fill="#735D86" transform="translate(216,195)"/>
<path d="M0 0 C0.66 0.33 1.32 0.66 2 1 C2 2.65 2 4.3 2 6 C1.34 6 0.68 6 0 6 C0.04125 7.010625 0.0825 8.02125 0.125 9.0625 C0 13 0 13 -0.96875 16.21875 C-2.09996137 20.36652503 -2.43741433 24.16601788 -2.625 28.4375 C-2.66367188 29.16904297 -2.70234375 29.90058594 -2.7421875 30.65429688 C-2.83533984 32.43583532 -2.91870286 34.21788122 -3 36 C-3.33 36 -3.66 36 -4 36 C-4.4182175 23.3450482 -3.12486779 12.28710152 0 0 Z " fill="#A899B4" transform="translate(159,248)"/>
<path d="M0 0 C0.66 0 1.32 0 2 0 C2.33 0.99 2.66 1.98 3 3 C0.6875 6.1875 0.6875 6.1875 -2 9 C-2.66 9 -3.32 9 -4 9 C-3.814375 9.5775 -3.62875 10.155 -3.4375 10.75 C-2.95976454 13.20692525 -3.24270636 14.64397534 -4 17 C-6 16 -6 16 -7 15 C-7.33 16.32 -7.66 17.64 -8 19 C-8.33 18.34 -8.66 17.68 -9 17 C-8.39501953 15.32006836 -8.39501953 15.32006836 -7.3828125 13.33984375 C-6.84333984 12.2734668 -6.84333984 12.2734668 -6.29296875 11.18554688 C-5.90753906 10.44369141 -5.52210938 9.70183594 -5.125 8.9375 C-4.74730469 8.19177734 -4.36960938 7.44605469 -3.98046875 6.67773438 C-1.16810645 1.16810645 -1.16810645 1.16810645 0 0 Z " fill="#7C678F" transform="translate(169,229)"/>
<path d="M0 0 C1.08784335 3.31395986 1.07262544 3.83580335 -0.4375 7.25 C-0.953125 8.1575 -1.46875 9.065 -2 10 C-2.66 10 -3.32 10 -4 10 C-4.66 11.32 -5.32 12.64 -6 14 C-6.42670076 10.51527717 -6.64789556 7.9813155 -4.6640625 4.9765625 C-3.16390788 3.25103253 -1.63343216 1.59940232 0 0 Z " fill="#3F1968" transform="translate(247,262)"/>
<path d="M0 0 C-1.44424635 3.23861303 -3.25772247 5.61969163 -5.625 8.25 C-6.25664062 8.95640625 -6.88828125 9.6628125 -7.5390625 10.390625 C-8.02117187 10.92171875 -8.50328125 11.4528125 -9 12 C-9.33 11.01 -9.66 10.02 -10 9 C-9.34 9 -8.68 9 -8 9 C-7.87625 7.88625 -7.87625 7.88625 -7.75 6.75 C-6.56032785 2.38786877 -4.62290843 0 0 0 Z " fill="#AA93C5" transform="translate(329,327)"/>
<path d="M0 0 C1.49828872 3.88235819 0.43110582 6.43449288 -0.9375 10.25 C-1.31777344 11.32765625 -1.69804687 12.4053125 -2.08984375 13.515625 C-2.39019531 14.33546875 -2.69054687 15.1553125 -3 16 C-4.07310858 12.72814447 -3.89263102 10.57052408 -3.0625 7.25 C-2.77052734 6.05117188 -2.77052734 6.05117188 -2.47265625 4.828125 C-2.31667969 4.22484375 -2.16070312 3.6215625 -2 3 C-1.34 3 -0.68 3 0 3 C0 2.01 0 1.02 0 0 Z " fill="#B2A0CA" transform="translate(343,293)"/>
<path d="M0 0 C-0.66 1.98 -1.32 3.96 -2 6 C-3.65 6.33 -5.3 6.66 -7 7 C-7.66 6.01 -8.32 5.02 -9 4 C-2.25 0 -2.25 0 0 0 Z " fill="#8C67B9" transform="translate(231,200)"/>
<path d="M0 0 C4.43458973 1.3937282 6.87378374 3.60582235 10 7 C3.51020408 6.51020408 3.51020408 6.51020408 1.0625 4.0625 C0 2 0 2 0 0 Z " fill="#B19DC6" transform="translate(305,203)"/>
<path d="M0 0 C-4.455 3.465 -4.455 3.465 -9 7 C-9.33 6.01 -9.66 5.02 -10 4 C-4.5 -1.125 -4.5 -1.125 0 0 Z " fill="#A28BBE" transform="translate(319,340)"/>
<path d="M0 0 C0.33 0.66 0.66 1.32 1 2 C0.0390625 3.9453125 0.0390625 3.9453125 -1.375 6.125 C-1.83648437 6.84945313 -2.29796875 7.57390625 -2.7734375 8.3203125 C-3.17820312 8.87460937 -3.58296875 9.42890625 -4 10 C-4.33 10 -4.66 10 -5 10 C-4.64766839 4.5388601 -4.64766839 4.5388601 -4 2 C-1.9375 0.5 -1.9375 0.5 0 0 Z " fill="#AC95C5" transform="translate(336,314)"/>
<path d="M0 0 C1.65 0.33 3.3 0.66 5 1 C2.47211993 3.79872437 0.79588866 5.45773019 -3 6 C-2.67 4.68 -2.34 3.36 -2 2 C-1.34 2 -0.68 2 0 2 C0 1.34 0 0.68 0 0 Z " fill="#614874" transform="translate(199,371)"/>
<path d="M0 0 C1.2065625 0.0309375 1.2065625 0.0309375 2.4375 0.0625 C-0.05202921 2.72985273 -2.19658134 4.61996343 -5.5625 6.0625 C-5.8925 4.4125 -6.2225 2.7625 -6.5625 1.0625 C-5.5725 1.0625 -4.5825 1.0625 -3.5625 1.0625 C-2.5625 0.0625 -2.5625 0.0625 0 0 Z " fill="#59426E" transform="translate(189.5625,378.9375)"/>
<path d="M0 0 C2 3 2 3 1.7578125 5.26171875 C1.54898438 6.06222656 1.34015625 6.86273438 1.125 7.6875 C0.92132813 8.49574219 0.71765625 9.30398438 0.5078125 10.13671875 C0.25644531 11.05904297 0.25644531 11.05904297 0 12 C-0.33 12 -0.66 12 -1 12 C-1.02687279 10.18757948 -1.04633715 8.37504767 -1.0625 6.5625 C-1.07410156 5.55316406 -1.08570313 4.54382813 -1.09765625 3.50390625 C-1 1 -1 1 0 0 Z " fill="#351A4F" transform="translate(185,341)"/>
<path d="M0 0 C-0.33 0.66 -0.66 1.32 -1 2 C-8.64288227 4.38056989 -8.64288227 4.38056989 -13 3 C-11.40084119 2.30093058 -9.79544955 1.61610532 -8.1875 0.9375 C-7.29417969 0.55464844 -6.40085938 0.17179688 -5.48046875 -0.22265625 C-3 -1 -3 -1 0 0 Z " fill="#A697B4" transform="translate(216,195)"/>
<path d="M0 0 C4.19360449 0.67097672 7.40334352 2.8558394 11 5 C8.61118335 5.8531488 7.37691245 6.12563748 4.9375 5.3125 C2.72742308 3.81535112 1.47304791 2.20957187 0 0 Z " fill="#BDAED2" transform="translate(294,197)"/>
<path d="M0 0 C0 0.66 0 1.32 0 2 C-1.43344 2.53190541 -2.87195367 3.05015258 -4.3125 3.5625 C-5.51326172 3.99755859 -5.51326172 3.99755859 -6.73828125 4.44140625 C-9 5 -9 5 -12 4 C-8.14070855 1.42713903 -4.66785662 0 0 0 Z " fill="#8966B6" transform="translate(250,193)"/>
<path d="M0 0 C0.66 0 1.32 0 2 0 C2.33 0.99 2.66 1.98 3 3 C1.71034824 4.37562854 0.37310707 5.70766393 -1 7 C-1.66 7 -2.32 7 -3 7 C-2.38722388 4.03824877 -1.74627478 2.61941217 0 0 Z " fill="#614C79" transform="translate(169,229)"/>
<path d="M0 0 C0.33 0 0.66 0 1 0 C1.33 3.96 1.66 7.92 2 12 C1.01 12 0.02 12 -1 12 C-1.08159574 7.83861737 -0.98248524 4.0527516 0 0 Z " fill="#331A4B" transform="translate(182,373)"/>
<path d="M0 0 C2.31 0 4.62 0 7 0 C4.31158141 2.25245881 2.35358125 3.88213958 -1 5 C-0.67 3.35 -0.34 1.7 0 0 Z " fill="#6B547D" transform="translate(211,364)"/>
<path d="M0 0 C0.33 0 0.66 0 1 0 C1 1.65 1 3.3 1 5 C-0.65 5.66 -2.3 6.32 -4 7 C-2.79618552 4.50638429 -1.54571278 2.31856917 0 0 Z " fill="#8E70B3" transform="translate(336,309)"/>
<path d="M0 0 C0.66 0 1.32 0 2 0 C2 0.66 2 1.32 2 2 C2.66 2 3.32 2 4 2 C4.66 3.32 5.32 4.64 6 6 C3.08482708 4.92598892 1.22189824 4.22189824 -1 2 C-0.67 1.34 -0.34 0.68 0 0 Z " fill="#BBA8D1" transform="translate(321,216)"/>
<path d="M0 0 C1.98 0 3.96 0 6 0 C6.33 0.99 6.66 1.98 7 3 C4.69 2.67 2.38 2.34 0 2 C0 1.34 0 0.68 0 0 Z " fill="#8D70B8" transform="translate(274,193)"/>
</svg>
